<?xml version="1.0" standalone="no"?>
<!DOCTYPE svg PUBLIC "-//W3C//DTD SVG 20010904//EN"
 "http://www.w3.org/TR/2001/REC-SVG-20010904/DTD/svg10.dtd">
<svg version="1.0" xmlns="http://www.w3.org/2000/svg"
 width="256.000000pt" height="256.000000pt" viewBox="0 0 256.000000 256.000000"
 preserveAspectRatio="xMidYMid meet">
<metadata>
Created by potrace 1.12, written by Peter Selinger 2001-2015
</metadata>
<g transform="translate(0.000000,256.000000) scale(0.100000,-0.100000)"
fill="#ffffff" stroke="none">
<path d="M1412 2366 c-13 -7 -254 -225 -537 -485 -533 -492 -549 -509 -549
-586 0 -78 15 -94 550 -587 283 -260 524 -478 536 -485 54 -29 116 -5 139 54
5 13 9 135 9 270 l0 245 34 34 34 34 224 0 c194 0 228 3 263 19 51 23 101 79
114 128 6 22 11 145 11 289 0 275 -6 312 -58 368 -57 60 -84 66 -330 66 l-224
0 -34 34 -34 34 0 235 c0 129 -3 248 -6 266 -14 67 -83 100 -142 67z m58 -323
c0 -269 6 -299 61 -350 52 -48 84 -53 314 -53 241 0 260 -4 289 -64 13 -29 16
-73 16 -280 0 -363 15 -346 -305 -346 -230 0 -262 -5 -314 -53 -55 -51 -61
-81 -61 -349 0 -155 -4 -248 -10 -248 -14 0 -1026 935 -1034 955 -8 21 -8 59
0 80 8 19 1021 955 1034 955 6 0 10 -95 10 -247z"/>
</g>
</svg>
