<?xml version="1.0" standalone="no"?>
<!DOCTYPE svg PUBLIC "-//W3C//DTD SVG 20010904//EN"
 "http://www.w3.org/TR/2001/REC-SVG-20010904/DTD/svg10.dtd">
<svg version="1.0" xmlns="http://www.w3.org/2000/svg"
 width="37.000000pt" height="42.000000pt" viewBox="0 0 37.000000 42.000000"
 preserveAspectRatio="xMidYMid meet">
<metadata>
Created by potrace 1.12, written by Peter Selinger 2001-2015
</metadata>
<g transform="translate(0.000000,42.000000) scale(0.100000,-0.100000)"
fill="#000000" stroke="none">
<path d="M17 403 c-4 -3 -7 -93 -7 -200 l0 -193 25 0 c25 0 25 1 25 80 0 73
-2 80 -20 80 -11 0 -20 5 -20 10 0 6 6 10 14 10 8 0 16 10 18 23 3 21 7 22
133 25 l130 3 -3 -116 -3 -115 25 0 26 0 0 178 c0 174 -1 179 -23 200 -13 12
-33 22 -45 22 -20 0 -22 -5 -22 -60 l0 -60 -80 0 -80 0 0 60 0 60 -43 0 c-24
0 -47 -3 -50 -7z"/>
</g>
</svg>
