<?xml version="1.0" standalone="no"?>
<!DOCTYPE svg PUBLIC "-//W3C//DTD SVG 20010904//EN"
 "http://www.w3.org/TR/2001/REC-SVG-20010904/DTD/svg10.dtd">
<svg version="1.0" xmlns="http://www.w3.org/2000/svg"
 width="300.000000pt" height="300.000000pt" viewBox="0 0 300.000000 300.000000"
 preserveAspectRatio="xMidYMid meet">
<metadata>
Created by potrace 1.10, written by Peter Selinger 2001-2011
</metadata>
<g transform="translate(0.000000,300.000000) scale(0.100000,-0.100000)"
fill="#ffffff" stroke="none">
<path d="M1414 2975 c-71 -36 -1364 -1330 -1393 -1395 -37 -81 -23 -158 38
-213 51 -46 93 -57 214 -57 l97 0 0 -557 c0 -347 4 -575 11 -603 13 -59 52
-108 103 -131 37 -17 70 -19 344 -19 l302 0 0 495 c0 539 -2 522 57 576 51 48
59 49 313 49 254 0 262 -1 313 -49 59 -54 57 -37 57 -576 l0 -495 303 0 c273
0 306 2 343 19 54 25 92 75 104 141 6 31 10 276 10 601 l0 549 98 0 c53 0 114
5 135 11 52 14 111 69 125 117 32 106 9 149 -193 352 l-164 165 -3 360 c-3
400 -2 391 -72 453 -45 40 -73 44 -238 40 -124 -3 -137 -5 -171 -28 -54 -37
-87 -108 -87 -189 l0 -65 -217 216 c-226 225 -269 257 -344 258 -19 0 -57 -11
-85 -25z"/>
</g>
</svg>
