<?xml version="1.0" standalone="no"?>
<!DOCTYPE svg PUBLIC "-//W3C//DTD SVG 20010904//EN"
 "http://www.w3.org/TR/2001/REC-SVG-20010904/DTD/svg10.dtd">
<svg version="1.0" xmlns="http://www.w3.org/2000/svg"
 width="490.000000pt" height="525.000000pt" viewBox="0 0 490.000000 525.000000"
 preserveAspectRatio="xMidYMid meet">
<metadata>
Created by potrace 1.12, written by Peter Selinger 2001-2015
</metadata>
<g transform="translate(0.000000,525.000000) scale(0.100000,-0.100000)"
fill="#ffffff" stroke="none">
<path d="M95 5026 c-37 -16 -70 -52 -84 -89 -8 -20 -11 -705 -11 -2264 l0
-2235 22 -30 c13 -17 106 -116 208 -220 l184 -188 438 0 438 0 0 648 c0 715
-2 688 63 736 28 21 32 21 1116 21 1020 0 1089 -1 1114 -18 15 -9 35 -32 44
-50 17 -30 18 -82 21 -684 l3 -653 528 0 529 0 21 43 21 43 0 2384 0 2384 -21
42 c-18 39 -73 88 -144 131 -31 19 -4448 18 -4490 -1z m4175 -1386 l0 -1330
-1845 0 -1845 0 0 1330 0 1330 1845 0 1845 0 0 -1330z"/>
<path d="M1570 660 l0 -640 270 0 270 0 0 640 0 640 -270 0 -270 0 0 -640z"/>
</g>
</svg>
