<?xml version="1.0" standalone="no"?>
<!DOCTYPE svg PUBLIC "-//W3C//DTD SVG 20010904//EN"
 "http://www.w3.org/TR/2001/REC-SVG-20010904/DTD/svg10.dtd">
<svg version="1.0" xmlns="http://www.w3.org/2000/svg"
 width="128.000000pt" height="128.000000pt" viewBox="0 0 128.000000 128.000000"
 preserveAspectRatio="xMidYMid meet">
<metadata>
Created by potrace 1.12, written by Peter Selinger 2001-2015
</metadata>
<g transform="translate(0.000000,128.000000) scale(0.100000,-0.100000)"
fill="#ffffff" stroke="none">
<path d="M314 1085 c-33 -17 -64 -62 -64 -94 0 -21 1 -21 396 -21 l397 0 -7
33 c-4 17 -20 46 -36 62 l-30 30 -313 2 c-263 3 -317 1 -343 -12z"/>
<path d="M310 554 l0 -386 29 -29 29 -29 276 0 275 0 28 24 28 24 3 391 3 391
-336 0 -335 0 0 -386z m165 -29 c0 -290 -1 -310 -18 -313 -45 -9 -47 3 -47
312 0 307 2 320 45 314 20 -3 20 -10 20 -313z m194 301 c8 -9 11 -100 9 -312
l-3 -299 -30 0 -30 0 -3 299 c-2 300 0 326 33 326 7 0 18 -6 24 -14z m201 -5
c6 -12 10 -125 10 -296 0 -171 -4 -284 -10 -296 -6 -10 -19 -19 -30 -19 -11 0
-24 9 -30 19 -6 12 -10 125 -10 296 0 171 4 284 10 296 6 10 19 19 30 19 11 0
24 -9 30 -19z"/>
</g>
</svg>
